<svg id="_x33_0" enable-background="new 0 0 64 64" height="512" viewBox="0 0 64 64" width="512" xmlns="http://www.w3.org/2000/svg"><g><path d="m8.699 34.203c1.441-.923 2.301-2.493 2.301-4.203s-.86-3.28-2.295-4.199c-.807-.524-1.742-.801-2.705-.801-2.757 0-5 2.243-5 5s2.243 5 5 5c.963 0 1.898-.277 2.699-.797z"/><path d="m54.705 53.801c-.807-.524-1.742-.801-2.705-.801-2.757 0-5 2.243-5 5s2.243 5 5 5 5-2.243 5-5c0-1.71-.86-3.28-2.295-4.199z"/><path d="m38 55c-.597 0-1.164.17-1.616.477-.854.542-1.384 1.509-1.384 2.523 0 1.654 1.346 3 3 3s3-1.346 3-3-1.346-3-3-3z"/><path d="m12.841 19.361c.652.418 1.398.639 2.159.639 2.206 0 4-1.794 4-4s-1.794-4-4-4-4 1.794-4 4c0 1.37.688 2.627 1.841 3.361z"/><path d="m59 15c-2.206 0-4 1.794-4 4 0 1.037.392 2.007 1.075 2.734l-4.624 7.266 1.736.997 4.579-7.196c.394.127.809.199 1.234.199 2.206 0 4-1.794 4-4s-1.794-4-4-4z"/><path d="m30.211 16.035 5.326-7.323c.459.182.95.288 1.463.288 2.206 0 4-1.794 4-4s-1.794-4-4-4-4 1.794-4 4c0 .945.337 1.846.915 2.543l-5.424 7.457z"/><path d="m13.789 43.965-5.326 7.323c-.459-.182-.95-.288-1.463-.288-2.206 0-4 1.794-4 4s1.794 4 4 4 4-1.794 4-4c0-.945-.337-1.846-.915-2.543l5.424-7.457z"/><path d="m28.454 17h-7.544c-.478 2.833-2.942 5-5.91 5-.811 0-1.607-.174-2.351-.493l-2.065 3.212c1.523 1.312 2.416 3.223 2.416 5.281 0 2.054-.891 3.961-2.417 5.279l4.963 7.721h12.908l8.357-13zm-13.454 8h8v2h-8zm6 10h-6v-2h6zm4 0h-2v-2h2zm4 0h-2v-2h2zm0-4h-14v-2h14zm-4-4v-2h4v2z"/><path d="m38.546 31-8.357 13 6.006 9.343c.556-.216 1.166-.343 1.805-.343 2.414 0 4.434 1.721 4.899 4h2.181c.488-3.386 3.401-6 6.92-6 1.009 0 1.996.218 2.903.634l4.909-7.634-8.357-13zm-.546 8h8v2h-8zm6 10h-6v-2h6zm4 0h-2v-2h2zm4 0h-2v-2h2zm0-4h-14v-2h14zm0-4h-4v-2h4z"/></g></svg>